<svg width="207" height="30" viewBox="0 0 207 30" fill="none" xmlns="http://www.w3.org/2000/svg">
<g clip-path="url(#clip0)">
<path d="M24.1414 18.4322L28.7427 13.7924C28.7427 15 29.247 16.0805 30.0664 16.9703L34.7308 21.6737H39.3952L32.3986 14.6186C32.1465 14.3644 32.0204 14.0466 32.0204 13.7924V10.4873L39.1431 3.30508H34.4787L24.1414 13.7288V3.30508H20.8637V21.6102H24.1414V18.4322Z" fill="white"/>
<path d="M65.1124 20.2754C65.9948 21.1653 67.1294 21.6102 68.327 21.6102H80.7444V18.3051H68.327C68.0119 18.3051 67.6967 18.178 67.4446 17.9237L66.247 16.7161C65.9948 16.4619 65.8688 16.1441 65.8688 15.8263V3.30508H62.5911V15.8263C62.5911 17.0339 63.0954 18.2415 63.9148 19.0678L65.1124 20.2754Z" fill="white"/>
<path d="M13.615 10.8051H4.53833C3.84497 10.8051 3.27768 10.2331 3.27768 9.5339V9.08898C3.27768 8.77119 3.40375 8.45339 3.65587 8.19915L4.85349 6.99153C5.10562 6.73729 5.42078 6.61017 5.73594 6.61017H12.3543C12.6695 6.61017 12.9847 6.73729 13.2368 6.99153L15.3169 9.08898L17.649 6.73729L15.569 4.63983C14.6865 3.75 13.5519 3.30508 12.3543 3.30508H5.73594C4.53833 3.30508 3.40375 3.81356 2.52129 4.63983L1.32368 5.91102C0.504259 6.73729 0 7.88136 0 9.15254V9.5339C0 12.0763 2.01703 14.1102 4.53833 14.1102H13.615C14.3083 14.1102 14.8756 14.6822 14.8756 15.3814V15.7627C14.8756 16.0805 14.7496 16.3983 14.4974 16.6525L13.2998 17.8602C13.0477 18.1144 12.7325 18.2415 12.4174 18.2415H5.73594C5.42078 18.2415 5.10562 18.1144 4.85349 17.8602L2.83645 15.8898L0.504259 18.2415L2.52129 20.2754C3.40375 21.1653 4.53833 21.6102 5.73594 21.6102H12.3543C13.5519 21.6102 14.6865 21.1017 15.569 20.2754L16.7666 19.0678C17.649 18.2415 18.0903 17.0339 18.0903 15.8263V15.4449C18.1533 12.9025 16.1363 10.8051 13.615 10.8051Z" fill="white"/>
<path d="M78.1601 4.63983C77.2776 3.75 76.143 3.30508 74.9454 3.30508H73.4327C72.235 3.30508 71.1005 3.81356 70.218 4.63983L69.0204 5.84746C68.1379 6.67373 67.6967 7.88136 67.6967 9.08898V10.8051C67.6967 12.0127 68.201 13.1568 69.0204 14.0466L70.218 15.2542C71.1005 16.1441 72.235 16.589 73.4327 16.589H74.9454C76.143 16.589 77.2776 16.0805 78.1601 15.2542L79.3577 14.0466C80.2401 13.1568 80.6814 12.0127 80.6814 10.8051V9.15254C80.6814 7.94492 80.1771 6.73729 79.3577 5.91102L78.1601 4.63983ZM77.4667 10.8051C77.4667 11.1229 77.3407 11.4407 77.0885 11.6949L75.8909 12.9025C75.6388 13.1568 75.3236 13.2839 75.0085 13.2839H73.4957C73.1805 13.2839 72.8654 13.1568 72.6132 12.9025L71.4156 11.6949C71.1635 11.4407 71.0374 11.1229 71.0374 10.8051V9.15254C71.0374 8.83475 71.1635 8.51695 71.4156 8.26271L72.6132 7.05508C72.8654 6.80085 73.1805 6.67373 73.4957 6.67373H75.0085C75.3236 6.67373 75.6388 6.80085 75.8909 7.05508L77.0885 8.26271C77.3407 8.51695 77.4667 8.83475 77.4667 9.15254V10.8051Z" fill="white"/>
<path d="M99.0868 4.63983C98.2043 3.75 97.0698 3.30508 95.8722 3.30508H89.2538C88.0561 3.30508 86.9216 3.81356 86.0391 4.63983L84.8415 5.84746C83.9591 6.67373 83.5178 7.88136 83.5178 9.08898V21.6102H86.7955V16.7797C87.1737 16.9068 87.6149 16.9703 88.0561 16.9703H95.9352C97.1328 16.9703 98.2674 16.4619 99.1498 15.6356L100.347 14.428C101.23 13.6017 101.671 12.3941 101.671 11.1864V10.9322V9.72458V9.15254C101.671 7.94491 101.167 6.73729 100.347 5.91102L99.0868 4.63983ZM98.3934 10.9322V11.1864C98.3934 11.5042 98.2674 11.822 98.0152 12.0763L96.8176 13.2839C96.5655 13.5381 96.2503 13.6653 95.9352 13.6653H88.0561C87.3628 13.6653 86.7955 13.0932 86.7955 12.3941V9.08898C86.7955 8.77119 86.9216 8.45339 87.1737 8.19915L88.3713 6.99153C88.6234 6.73729 88.9386 6.61017 89.2538 6.61017H95.8722C96.1873 6.61017 96.5025 6.73729 96.7546 6.99153L97.9522 8.19915C98.2043 8.45339 98.3304 8.77119 98.3304 9.08898V9.66102V10.9322H98.3934Z" fill="white"/>
<path d="M182.668 4.7034C181.785 3.81357 180.651 3.36865 179.453 3.36865H172.835C171.637 3.36865 170.502 3.87713 169.62 4.7034L168.422 5.91103C167.54 6.80086 167.099 7.94492 167.099 9.15255V21.6102H170.376V16.8432C170.755 16.9703 171.196 17.0339 171.637 17.0339H179.516C179.831 17.0339 180.146 17.161 180.398 17.4153L181.596 18.6229C181.848 18.8771 181.974 19.1949 181.974 19.5127V21.6102H185.252V19.5763C185.252 18.3687 184.748 17.161 183.928 16.3348L183.046 15.4449L183.928 14.5551C184.811 13.6653 185.252 12.5212 185.252 11.3136V10.8051V9.78814V9.21611C185.252 8.00848 184.748 6.86441 183.928 5.97458L182.668 4.7034ZM181.911 10.7415V11.25C181.911 11.5678 181.785 11.8856 181.533 12.1398L180.335 13.3475C180.083 13.6017 179.768 13.7288 179.453 13.7288H171.574C170.881 13.7288 170.313 13.1568 170.313 12.4576V9.15255C170.313 8.83475 170.439 8.51696 170.691 8.26272L171.889 7.05509C172.141 6.80086 172.456 6.67374 172.772 6.67374H179.39C179.705 6.67374 180.02 6.80086 180.272 7.05509L181.533 8.26272C181.785 8.51696 181.911 8.83475 181.911 9.15255V9.72458V10.7415Z" fill="white"/>
<path d="M107.092 20.2754C107.974 21.1653 109.109 21.6102 110.307 21.6102H116.988C118.186 21.6102 119.383 21.1017 120.203 20.2754L122.283 18.178L119.951 15.8263L117.87 17.9237C117.618 18.178 117.303 18.3051 116.988 18.3051H110.307C109.991 18.3051 109.676 18.178 109.424 17.9237L108.226 16.7161C107.974 16.4619 107.848 16.1441 107.848 15.8263V14.1102H117.24V10.8051H107.848V9.08898C107.848 8.77119 107.974 8.45339 108.226 8.19915L109.424 6.99153C109.676 6.73729 109.991 6.61017 110.307 6.61017H116.988C117.303 6.61017 117.618 6.73729 117.87 6.99153L119.951 9.08898L122.283 6.73729L120.203 4.63983C119.383 3.81356 118.186 3.30508 116.988 3.30508H110.307C109.109 3.30508 107.974 3.81356 107.092 4.63983L105.894 5.84746C105.012 6.67373 104.571 7.88136 104.571 9.08898V15.7627C104.571 16.9703 105.075 18.1144 105.894 19.0042L107.092 20.2754Z" fill="white"/>
<path d="M161.804 4.7034C160.922 3.81357 159.787 3.36865 158.589 3.36865H148.882C147.433 3.36865 146.172 4.57628 146.172 6.1017V18.9407C146.172 20.4025 147.37 21.6737 148.882 21.6737H158.589C159.787 21.6737 160.922 21.1653 161.804 20.339L163.002 19.1314C163.884 18.3051 164.325 17.0975 164.325 15.8898V9.15255C164.325 7.94492 163.821 6.80086 163.002 5.91103L161.804 4.7034ZM161.048 15.8263C161.048 16.1441 160.922 16.4619 160.669 16.7161L159.472 17.9237C159.22 18.178 158.904 18.3051 158.589 18.3051H149.45V6.67374H158.589C158.904 6.67374 159.22 6.80086 159.472 7.05509L160.669 8.26272C160.922 8.51696 161.048 8.83475 161.048 9.15255V15.8263Z" fill="white"/>
<path d="M203.531 4.7034C202.712 3.81357 201.514 3.36865 200.317 3.36865H193.635C192.438 3.36865 191.303 3.87713 190.421 4.7034L189.223 5.91103C188.341 6.80086 187.899 7.94492 187.899 9.15255V21.6102H191.177V14.1737H202.775V21.6102H206.053V9.15255C206.053 7.94492 205.548 6.80086 204.729 5.91103L203.531 4.7034ZM191.177 10.8687V9.15255C191.177 8.83475 191.303 8.51696 191.555 8.26272L192.753 7.05509C193.005 6.80086 193.32 6.67374 193.635 6.67374H200.317C200.632 6.67374 200.947 6.80086 201.199 7.05509L202.397 8.26272C202.649 8.51696 202.775 8.83475 202.775 9.15255V10.8687H191.177Z" fill="white"/>
<path d="M143.335 3.30508H140.058V16.9068L129.91 5.02119C129.153 4.13136 128.019 3.87712 126.947 4.25847C125.876 4.63983 125.182 5.65678 125.182 6.80085V21.6737H128.46V8.38983L138.671 20.2754C139.427 21.1653 140.562 21.4195 141.634 21.0381C142.705 20.6568 143.399 19.6398 143.399 18.4958V8.00847L143.335 3.30508Z" fill="white"/>
<path d="M47.1482 14.1102H51.1192C52.9471 14.1102 54.3969 12.6483 54.3969 10.8051H50.4258C48.5979 10.8051 47.1482 12.3305 47.1482 14.1102Z" fill="white"/>
<path d="M58.557 5.91102L57.3594 4.63983C56.54 3.75 56.603 3.30508 56.603 3.30508C56.603 1.46186 55.1533 0 53.3253 0H51.6865V3.30508H49.8586V0H48.2827C46.4548 0 45.0051 1.46186 45.0051 3.30508C45.0051 3.30508 45.1311 3.81356 44.2487 4.63983L43.0511 5.84746C42.1686 6.73729 41.7274 7.88136 41.7274 9.08898V15.7627C41.7274 16.9703 42.2316 18.178 43.0511 19.0042L44.2487 20.2119C45.1311 21.1017 46.2657 21.5466 47.4633 21.5466H54.1448C55.3424 21.5466 56.54 21.0381 57.3594 20.2119L58.557 19.0042C59.3764 18.178 59.8807 16.9703 59.8807 15.7627V9.15254C59.8807 7.88136 59.3764 6.73729 58.557 5.91102ZM56.603 15.8263C56.603 16.1441 56.4769 16.4619 56.2248 16.7161L55.0272 17.9237C54.7751 18.178 54.4599 18.3051 54.1448 18.3051H47.4633C47.1482 18.3051 46.833 18.178 46.5809 17.9237L45.3833 16.7161C45.1311 16.4619 45.0051 16.1441 45.0051 15.8263V9.15254C45.0051 8.83474 45.1311 8.51695 45.3833 8.26271L46.5809 7.05508C46.833 6.80085 47.1482 6.67373 47.4633 6.67373H54.1448C54.4599 6.67373 54.7751 6.80085 55.0272 7.05508L56.2248 8.26271C56.4769 8.51695 56.603 8.83474 56.603 9.15254V15.8263Z" fill="white"/>
<path d="M145.857 14.1102H149.828C151.656 14.1102 153.105 12.6483 153.105 10.8051H149.134C147.307 10.8051 146.487 12.2669 146.487 14.1102H145.857Z" fill="white"/>
<path d="M1.89096 24.5975V29.8729H0.63031V24.5975H1.89096Z" fill="white"/>
<path d="M2.83643 29.2373C2.83643 28.9195 3.08855 28.6653 3.46675 28.6653C3.78191 28.6653 4.09707 28.9195 4.09707 29.2373C4.09707 29.5551 3.84494 29.8093 3.46675 29.8093C3.08855 29.8093 2.83643 29.5551 2.83643 29.2373Z" fill="white"/>
<path d="M3.90799 25.6144V24.5975H8.32025V25.6144H6.74444V29.8729H5.4838V25.6144H3.90799Z" fill="white"/>
<path d="M8.13116 29.2373C8.13116 28.9195 8.38329 28.6653 8.76149 28.6653C9.07665 28.6653 9.39181 28.9195 9.39181 29.2373C9.39181 29.5551 9.13968 29.8093 8.76149 29.8093C8.44633 29.8093 8.13116 29.5551 8.13116 29.2373Z" fill="white"/>
<path d="M11.8501 28.2839L13.1737 28.0297C13.2998 28.6653 13.741 28.8559 14.1823 28.8559C14.6865 28.8559 15.0017 28.6653 15.0017 28.2839C15.0017 27.839 14.5605 27.7754 13.741 27.5212C12.6695 27.2034 11.9131 26.9492 11.9131 25.8686C11.9131 25.2966 12.1022 24.2797 13.9301 24.2797C15.0647 24.2797 15.8841 24.661 16.1363 25.9322L14.8756 26.0593C14.7496 25.4873 14.4344 25.3602 13.9932 25.3602C13.615 25.3602 13.2998 25.4873 13.2998 25.8051C13.2998 26.1864 13.8671 26.3136 14.5605 26.5042C15.5059 26.7585 16.3254 27.0127 16.3254 28.1568C16.3254 29.5551 15.0017 29.8729 14.1192 29.8729C13.1107 29.9364 12.0392 29.6186 11.8501 28.2839Z" fill="white"/>
<path d="M16.5145 25.6144V24.5975H20.9267V25.6144H19.3509V29.8729H18.0903V25.6144H16.5145Z" fill="white"/>
<path d="M21.6201 27.839V24.5975H22.8807V27.7119C22.8807 28.5382 23.1328 28.9195 23.8262 28.9195C24.4565 28.9195 24.7717 28.5382 24.7717 27.7119V24.5975H26.0323V27.839C26.0323 29.2373 25.2759 29.9365 23.8262 29.9365C22.3764 29.9365 21.6201 29.2373 21.6201 27.839Z" fill="white"/>
<path d="M31.7683 27.1398C31.7683 29.8093 29.8143 29.8093 29.1209 29.8093H27.0409V28.7924H27.6082V25.5509H27.0409V24.5339H29.1209C29.9403 24.5975 31.7683 24.5975 31.7683 27.1398ZM30.5076 27.1398C30.5076 25.9958 30.0034 25.5509 29.247 25.5509H28.8688V28.7924H29.31C30.0034 28.7924 30.5076 28.2203 30.5076 27.1398Z" fill="white"/>
<path d="M34.0374 24.5975V29.8729H32.7768V24.5975H34.0374Z" fill="white"/>
<path d="M34.9199 27.2034C34.9199 25.7415 35.8023 24.4068 37.5042 24.4068C39.1431 24.4068 40.0885 25.678 40.0885 27.2034C40.0885 28.6017 39.2691 30 37.5042 30C35.7393 30 34.9199 28.6017 34.9199 27.2034ZM38.7649 27.2034C38.7649 26.25 38.3867 25.4873 37.5042 25.4873C36.6218 25.4873 36.2436 26.25 36.2436 27.2034C36.2436 28.1568 36.6218 28.9195 37.5042 28.9195C38.3867 28.9195 38.7649 28.1568 38.7649 27.2034Z" fill="white"/>
</g>
<defs>
<clipPath id="clip0">
<rect width="206.053" height="30" fill="white"/>
</clipPath>
</defs>
</svg>
